<svg width="22" height="44" viewBox="0 0 22 44" fill="none" xmlns="http://www.w3.org/2000/svg">
<path d="M11 29.2148C14.917 29.2148 18.1436 25.9814 18.1436 22.0645C18.1436 18.1475 14.9102 14.9209 11 14.9209C7.08301 14.9209 3.85645 18.1475 3.85645 22.0645C3.85645 25.9814 7.08301 29.2148 11 29.2148ZM11 27.6084C7.93066 27.6084 5.46973 25.1338 5.46973 22.0645C5.46973 18.9951 7.92383 16.5273 11 16.5273C14.0693 16.5273 16.5371 18.9951 16.5439 22.0645C16.5439 25.1338 14.0693 27.6084 11 27.6084ZM10.2754 25.3252C10.5352 25.3252 10.7676 25.1885 10.9248 24.9561L13.9805 20.2461C14.0762 20.0957 14.1514 19.9248 14.1514 19.7676C14.1514 19.3984 13.8232 19.1387 13.4678 19.1387C13.2422 19.1387 13.0439 19.2686 12.8867 19.5215L10.2549 23.7119L9.04492 22.2012C8.88086 21.9893 8.70996 21.9141 8.49121 21.9141C8.12891 21.9141 7.83496 22.2012 7.83496 22.5703C7.83496 22.748 7.89648 22.9053 8.02637 23.0693L9.59863 24.9629C9.79004 25.2021 10.002 25.3252 10.2754 25.3252Z" fill="#56C0C1"/>
</svg>
