<svg width="109" height="19" viewBox="0 0 109 19" fill="none" xmlns="http://www.w3.org/2000/svg">
    <path d="M12.1593 6.54869L10.4255 0.840332C10.0835 -0.280111 8.5031 -0.280111 8.17286 0.840332L6.42733 6.54869H1.17894C0.0349075 6.54869 -0.436858 8.02296 0.494879 8.68343L4.78794 11.7499L3.10138 17.187C2.75935 18.2839 4.03312 19.1684 4.94127 18.4726L9.2933 15.1702L13.6453 18.4844C14.5535 19.1802 15.8273 18.2957 15.4852 17.1988L13.7987 11.7617L18.0917 8.69522C19.0235 8.02296 18.5517 6.56049 17.4077 6.56049H12.1593V6.54869Z" fill="#FFE072"/>
    <path d="M34.4262 6.54869L32.6924 0.840332C32.3504 -0.280111 30.77 -0.280111 30.4398 0.840332L28.6942 6.54869H23.4458C22.3018 6.54869 21.83 8.02296 22.7618 8.68343L27.0549 11.7499L25.3683 17.187C25.0263 18.2839 26.3 19.1684 27.2082 18.4726L31.5602 15.1702L35.9122 18.4844C36.8204 19.1802 38.0942 18.2957 37.7521 17.1988L36.0656 11.7617L40.3586 8.69522C41.2904 8.02296 40.8186 6.56049 39.6746 6.56049H34.4262V6.54869Z" fill="#FFE072"/>
    <path d="M56.8351 6.54869L55.1013 0.840332C54.7593 -0.280111 53.1789 -0.280111 52.8486 0.840332L51.1031 6.54869H45.8547C44.7107 6.54869 44.2389 8.02296 45.1707 8.68343L49.4637 11.7499L47.7772 17.187C47.4351 18.2839 48.7089 19.1684 49.617 18.4726L53.9691 15.1702L58.3211 18.4844C59.2293 19.1802 60.503 18.2957 60.161 17.1988L58.4744 11.7617L62.7675 8.69522C63.6992 8.02296 63.2275 6.56049 62.0834 6.56049H56.8351V6.54869Z" fill="#FFE072"/>
    <path d="M79.2439 6.54869L77.5102 0.840332C77.1682 -0.280111 75.5878 -0.280111 75.2575 0.840332L73.512 6.54869H68.2636C67.1196 6.54869 66.6478 8.02296 67.5795 8.68343L71.8726 11.7499L70.186 17.187C69.844 18.2839 71.1178 19.1684 72.0259 18.4726L76.378 15.1702L80.73 18.4844C81.6381 19.1802 82.9119 18.2957 82.5699 17.1988L80.8833 11.7617L85.1764 8.69522C86.1081 8.02296 85.6364 6.56049 84.4923 6.56049H79.2439V6.54869Z" fill="#FFE072"/>
    <path d="M101.653 6.54869L99.9189 0.840332C99.5769 -0.280111 97.9964 -0.280111 97.6662 0.840332L95.9207 6.54869H90.6723C89.5283 6.54869 89.0565 8.02296 89.9882 8.68343L94.2813 11.7499L92.5947 17.187C92.2527 18.2839 93.5265 19.1684 94.4346 18.4726L98.7867 15.1702L103.139 18.4844C104.047 19.1802 105.321 18.2957 104.979 17.1988L103.292 11.7617L107.585 8.69522C108.517 8.02296 108.045 6.56049 106.901 6.56049H101.653V6.54869Z" fill="#FFE072"/>
</svg>
